<mxfile host="app.diagrams.net" agent="Mozilla/5.0 (Windows NT 10.0; Win64; x64) AppleWebKit/537.36 (KHTML, like Gecko) Chrome/140.0.0.0 Safari/537.36" version="28.2.5">
  <diagram name="Page-1" id="XIqqTMS4WJ9DYkAOLX7r">
    <mxGraphModel dx="1379" dy="797" grid="1" gridSize="10" guides="1" tooltips="1" connect="1" arrows="1" fold="1" page="1" pageScale="1" pageWidth="1654" pageHeight="1169" math="0" shadow="0">
      <root>
        <mxCell id="0" />
        <mxCell id="1" parent="0" />
        <mxCell id="vs-SE0_Q2x5BFznHqj6H-2" value="" style="verticalLabelPosition=bottom;html=1;verticalAlign=top;align=center;shape=mxgraph.floorplan.room;strokeColor=none;fillColor=#000000;" parent="1" vertex="1">
          <mxGeometry x="582" y="523" width="65" height="107" as="geometry" />
        </mxCell>
        <mxCell id="vs-SE0_Q2x5BFznHqj6H-3" value="" style="verticalLabelPosition=bottom;html=1;verticalAlign=top;align=center;shape=mxgraph.floorplan.doorLeft;aspect=fixed;strokeColor=light-dark(#000000,#000000);fillColor=default;strokeWidth=0.7874;" parent="1" vertex="1">
          <mxGeometry x="647" y="555" width="24.47" height="26" as="geometry" />
        </mxCell>
        <mxCell id="vs-SE0_Q2x5BFznHqj6H-5" value="" style="verticalLabelPosition=bottom;html=1;verticalAlign=top;align=center;shape=mxgraph.floorplan.wall;fillColor=strokeColor;direction=south;strokeColor=light-dark(#000000,#000000);wallThickness=4;" parent="1" vertex="1">
          <mxGeometry x="577" y="438" width="19" height="86" as="geometry" />
        </mxCell>
        <mxCell id="vs-SE0_Q2x5BFznHqj6H-6" value="" style="verticalLabelPosition=bottom;html=1;verticalAlign=top;align=center;shape=mxgraph.floorplan.wall;direction=south;strokeColor=light-dark(#000000,#000000);fillColor=#000000;" parent="1" vertex="1">
          <mxGeometry x="580" y="387" width="11" height="52" as="geometry" />
        </mxCell>
        <mxCell id="vs-SE0_Q2x5BFznHqj6H-7" value="" style="verticalLabelPosition=bottom;html=1;verticalAlign=top;align=center;shape=mxgraph.floorplan.wall;direction=south;wallThickness=4;rotation=90;" parent="1" vertex="1">
          <mxGeometry x="584" y="371" width="19" height="27" as="geometry" />
        </mxCell>
        <mxCell id="vs-SE0_Q2x5BFznHqj6H-8" value="" style="verticalLabelPosition=bottom;html=1;verticalAlign=top;align=center;shape=mxgraph.floorplan.window;fillColor=light-dark(#FFFFFF,#FFFFFF);strokeColor=light-dark(#000000,#000000);wallThickness=5;" parent="1" vertex="1">
          <mxGeometry x="607" y="380" width="90" height="10" as="geometry" />
        </mxCell>
        <mxCell id="vs-SE0_Q2x5BFznHqj6H-9" value="" style="verticalLabelPosition=bottom;html=1;verticalAlign=top;align=center;shape=mxgraph.floorplan.wall;direction=south;wallThickness=4;rotation=90;" parent="1" vertex="1">
          <mxGeometry x="697" y="375" width="19" height="19" as="geometry" />
        </mxCell>
        <mxCell id="vs-SE0_Q2x5BFznHqj6H-10" value="" style="verticalLabelPosition=bottom;html=1;verticalAlign=top;align=center;shape=mxgraph.floorplan.wall;direction=south;strokeColor=light-dark(#000000,#000000);" parent="1" vertex="1">
          <mxGeometry x="715" y="353" width="11" height="54" as="geometry" />
        </mxCell>
        <mxCell id="vs-SE0_Q2x5BFznHqj6H-12" value="" style="verticalLabelPosition=bottom;html=1;verticalAlign=top;align=center;shape=mxgraph.floorplan.wallCorner;direction=north;fillColor=light-dark(#FFFFFF,#FFFFFF);gradientColor=none;strokeColor=light-dark(#000000,#000000);wallThickness=4;" parent="1" vertex="1">
          <mxGeometry x="715" y="407" width="73" height="74" as="geometry" />
        </mxCell>
        <mxCell id="vs-SE0_Q2x5BFznHqj6H-13" value="" style="verticalLabelPosition=bottom;html=1;verticalAlign=top;align=center;shape=mxgraph.floorplan.wall;direction=south;wallThickness=4;rotation=90;" parent="1" vertex="1">
          <mxGeometry x="717" y="340" width="19" height="21" as="geometry" />
        </mxCell>
        <mxCell id="vs-SE0_Q2x5BFznHqj6H-14" value="" style="verticalLabelPosition=bottom;html=1;verticalAlign=top;align=center;shape=mxgraph.floorplan.window;fillColor=light-dark(#FFFFFF,#FFFFFF);strokeColor=light-dark(#000000,#000000);wallThickness=5;" parent="1" vertex="1">
          <mxGeometry x="737" y="346" width="80" height="10" as="geometry" />
        </mxCell>
        <mxCell id="vs-SE0_Q2x5BFznHqj6H-15" value="" style="verticalLabelPosition=bottom;html=1;verticalAlign=top;align=center;shape=mxgraph.floorplan.wall;direction=south;wallThickness=4;rotation=90;" parent="1" vertex="1">
          <mxGeometry x="818" y="341" width="19" height="21" as="geometry" />
        </mxCell>
        <mxCell id="KtzTF3C9ymT0nLvdZL6y-1" value="" style="verticalLabelPosition=bottom;html=1;verticalAlign=top;align=center;shape=mxgraph.floorplan.wall;fillColor=strokeColor;direction=south;strokeColor=light-dark(#000000,#000000);wallThickness=11;rotation=-180;" parent="1" vertex="1">
          <mxGeometry x="928" y="354" width="19" height="72" as="geometry" />
        </mxCell>
        <mxCell id="KtzTF3C9ymT0nLvdZL6y-2" value="" style="verticalLabelPosition=bottom;html=1;verticalAlign=top;align=center;shape=mxgraph.floorplan.wall;direction=south;wallThickness=4;rotation=90;" parent="1" vertex="1">
          <mxGeometry x="929" y="329" width="19" height="45" as="geometry" />
        </mxCell>
        <mxCell id="KtzTF3C9ymT0nLvdZL6y-3" value="" style="verticalLabelPosition=bottom;html=1;verticalAlign=top;align=center;shape=mxgraph.floorplan.wall;direction=south;wallThickness=4;rotation=-180;" parent="1" vertex="1">
          <mxGeometry x="819" y="353" width="20" height="126" as="geometry" />
        </mxCell>
        <mxCell id="KtzTF3C9ymT0nLvdZL6y-4" value="" style="verticalLabelPosition=bottom;html=1;verticalAlign=top;align=center;shape=mxgraph.floorplan.wallCorner;direction=north;fillColor=light-dark(#FFFFFF,#FFFFFF);gradientColor=none;strokeColor=light-dark(#000000,#000000);wallThickness=4;rotation=-90;" parent="1" vertex="1">
          <mxGeometry x="879.5" y="416.5" width="55" height="73" as="geometry" />
        </mxCell>
        <mxCell id="KtzTF3C9ymT0nLvdZL6y-5" value="" style="verticalLabelPosition=bottom;html=1;verticalAlign=top;align=center;shape=mxgraph.floorplan.window;fillColor=light-dark(#FFFFFF,#FFFFFF);strokeColor=light-dark(#000000,#000000);wallThickness=5;" parent="1" vertex="1">
          <mxGeometry x="838" y="346" width="78" height="10" as="geometry" />
        </mxCell>
        <mxCell id="KtzTF3C9ymT0nLvdZL6y-6" value="" style="verticalLabelPosition=bottom;html=1;verticalAlign=top;align=center;shape=mxgraph.floorplan.window;fillColor=light-dark(#FFFFFF,#FFFFFF);strokeColor=light-dark(#000000,#000000);wallThickness=5;" parent="1" vertex="1">
          <mxGeometry x="961" y="346" width="78" height="10" as="geometry" />
        </mxCell>
        <mxCell id="KtzTF3C9ymT0nLvdZL6y-7" value="" style="verticalLabelPosition=bottom;html=1;verticalAlign=top;align=center;shape=mxgraph.floorplan.wall;direction=south;wallThickness=4;rotation=90;" parent="1" vertex="1">
          <mxGeometry x="1041.5" y="338.5" width="19" height="24" as="geometry" />
        </mxCell>
        <mxCell id="KtzTF3C9ymT0nLvdZL6y-8" value="" style="verticalLabelPosition=bottom;html=1;verticalAlign=top;align=center;shape=mxgraph.floorplan.wall;fillColor=strokeColor;direction=south;strokeColor=light-dark(#000000,#000000);wallThickness=10;rotation=-180;" parent="1" vertex="1">
          <mxGeometry x="1049" y="353" width="19" height="38" as="geometry" />
        </mxCell>
        <mxCell id="O2O5Myb_N9L3xyK0cwro-1" value="" style="verticalLabelPosition=bottom;html=1;verticalAlign=top;align=center;shape=mxgraph.floorplan.window;fillColor=light-dark(#FFFFFF,#FFFFFF);strokeColor=light-dark(#000000,#000000);wallThickness=10;rotation=90;" parent="1" vertex="1">
          <mxGeometry x="1002.75" y="441.75" width="111.5" height="10" as="geometry" />
        </mxCell>
        <mxCell id="O2O5Myb_N9L3xyK0cwro-2" value="" style="verticalLabelPosition=bottom;html=1;verticalAlign=top;align=center;shape=mxgraph.floorplan.wall;direction=south;wallThickness=10;rotation=-180;" parent="1" vertex="1">
          <mxGeometry x="1049" y="502" width="19" height="21" as="geometry" />
        </mxCell>
        <mxCell id="O2O5Myb_N9L3xyK0cwro-3" value="" style="verticalLabelPosition=bottom;html=1;verticalAlign=top;align=center;shape=mxgraph.floorplan.wallCorner;fillColor=strokeColor;wallThickness=9;" parent="1" vertex="1">
          <mxGeometry x="1011" y="523" width="52" height="80" as="geometry" />
        </mxCell>
        <mxCell id="O2O5Myb_N9L3xyK0cwro-5" value="" style="verticalLabelPosition=bottom;html=1;verticalAlign=top;align=center;shape=mxgraph.floorplan.wall;direction=south;wallThickness=4;rotation=90;" parent="1" vertex="1">
          <mxGeometry x="985" y="509" width="19" height="33" as="geometry" />
        </mxCell>
        <mxCell id="O2O5Myb_N9L3xyK0cwro-6" value="" style="verticalLabelPosition=bottom;html=1;verticalAlign=top;align=center;shape=mxgraph.floorplan.wall;direction=south;wallThickness=4;rotation=90;" parent="1" vertex="1">
          <mxGeometry x="909.5" y="499.5" width="19" height="52" as="geometry" />
        </mxCell>
        <mxCell id="O2O5Myb_N9L3xyK0cwro-7" value="" style="verticalLabelPosition=bottom;html=1;verticalAlign=top;align=center;shape=mxgraph.floorplan.wall;direction=south;wallThickness=3;rotation=-180;" parent="1" vertex="1">
          <mxGeometry x="914" y="528" width="20" height="66" as="geometry" />
        </mxCell>
        <mxCell id="O2O5Myb_N9L3xyK0cwro-8" value="" style="verticalLabelPosition=bottom;html=1;verticalAlign=top;align=center;shape=mxgraph.floorplan.wall;direction=south;wallThickness=3;rotation=90;fillOpacity=100;" parent="1" vertex="1">
          <mxGeometry x="926" y="582" width="19" height="26" as="geometry" />
        </mxCell>
        <mxCell id="O2O5Myb_N9L3xyK0cwro-9" value="" style="verticalLabelPosition=bottom;html=1;verticalAlign=top;align=center;shape=mxgraph.floorplan.wall;direction=south;wallThickness=3;rotation=90;fillOpacity=100;" parent="1" vertex="1">
          <mxGeometry x="984.5" y="578.5" width="19" height="33" as="geometry" />
        </mxCell>
        <mxCell id="O2O5Myb_N9L3xyK0cwro-10" value="" style="verticalLabelPosition=bottom;html=1;verticalAlign=top;align=center;shape=mxgraph.floorplan.window;fillColor=light-dark(#FFFFFF,#FFFFFF);strokeColor=light-dark(#000000,#000000);wallThickness=3;strokeWidth=0.3937;" parent="1" vertex="1">
          <mxGeometry x="949" y="590" width="28" height="10" as="geometry" />
        </mxCell>
        <mxCell id="O2O5Myb_N9L3xyK0cwro-11" value="" style="verticalLabelPosition=bottom;html=1;verticalAlign=top;align=center;shape=mxgraph.floorplan.wall;fillColor=strokeColor;direction=south;strokeColor=light-dark(#000000,#000000);wallThickness=10;rotation=-180;" parent="1" vertex="1">
          <mxGeometry x="839" y="523" width="19" height="80" as="geometry" />
        </mxCell>
        <mxCell id="O2O5Myb_N9L3xyK0cwro-12" value="" style="verticalLabelPosition=bottom;html=1;verticalAlign=top;align=center;shape=mxgraph.floorplan.wall;fillColor=strokeColor;wallThickness=9;" parent="1" vertex="1">
          <mxGeometry x="704" y="687" width="220" height="10" as="geometry" />
        </mxCell>
        <mxCell id="O2O5Myb_N9L3xyK0cwro-13" value="" style="verticalLabelPosition=bottom;html=1;verticalAlign=top;align=center;shape=mxgraph.floorplan.wall;fillColor=strokeColor;direction=south;strokeColor=light-dark(#000000,#000000);wallThickness=10;rotation=-180;" parent="1" vertex="1">
          <mxGeometry x="712" y="586" width="19" height="44" as="geometry" />
        </mxCell>
        <mxCell id="O2O5Myb_N9L3xyK0cwro-14" value="" style="verticalLabelPosition=bottom;html=1;verticalAlign=top;align=center;shape=mxgraph.floorplan.wall;direction=south;wallThickness=3;rotation=-180;" parent="1" vertex="1">
          <mxGeometry x="715" y="630" width="20" height="57" as="geometry" />
        </mxCell>
        <mxCell id="O2O5Myb_N9L3xyK0cwro-15" value="" style="verticalLabelPosition=bottom;html=1;verticalAlign=top;align=center;shape=mxgraph.floorplan.wall;direction=south;wallThickness=3;rotation=90;fillOpacity=100;" parent="1" vertex="1">
          <mxGeometry x="878.5" y="561" width="19" height="69" as="geometry" />
        </mxCell>
        <mxCell id="O2O5Myb_N9L3xyK0cwro-16" value="" style="verticalLabelPosition=bottom;html=1;verticalAlign=top;align=center;shape=mxgraph.floorplan.wall;direction=south;wallThickness=3;rotation=-180;" parent="1" vertex="1">
          <mxGeometry x="835" y="604" width="20" height="16" as="geometry" />
        </mxCell>
        <mxCell id="O2O5Myb_N9L3xyK0cwro-17" value="" style="verticalLabelPosition=bottom;html=1;verticalAlign=top;align=center;shape=mxgraph.floorplan.wall;direction=south;wallThickness=3;rotation=-180;" parent="1" vertex="1">
          <mxGeometry x="835" y="657" width="20" height="30" as="geometry" />
        </mxCell>
        <mxCell id="O2O5Myb_N9L3xyK0cwro-18" value="" style="verticalLabelPosition=bottom;html=1;verticalAlign=top;align=center;shape=mxgraph.floorplan.wall;direction=south;wallThickness=5;rotation=-180;" parent="1" vertex="1">
          <mxGeometry x="889" y="597" width="20" height="91" as="geometry" />
        </mxCell>
        <mxCell id="O2O5Myb_N9L3xyK0cwro-19" value="" style="verticalLabelPosition=bottom;html=1;verticalAlign=top;align=center;shape=mxgraph.floorplan.doorRight;aspect=fixed;rotation=-180;" parent="1" vertex="1">
          <mxGeometry x="833" y="441" width="37" height="39.31" as="geometry" />
        </mxCell>
        <mxCell id="O2O5Myb_N9L3xyK0cwro-20" value="" style="verticalLabelPosition=bottom;html=1;verticalAlign=top;align=center;shape=mxgraph.floorplan.doorLeft;aspect=fixed;rotation=-180;" parent="1" vertex="1">
          <mxGeometry x="788.3" y="441" width="36.7" height="39" as="geometry" />
        </mxCell>
        <mxCell id="O2O5Myb_N9L3xyK0cwro-21" value="" style="verticalLabelPosition=bottom;html=1;verticalAlign=top;align=center;shape=mxgraph.floorplan.wall;direction=south;wallThickness=4;rotation=90;snapToPoint=0;" parent="1" vertex="1">
          <mxGeometry x="820" y="474" width="19" height="8" as="geometry" />
        </mxCell>
        <mxCell id="O2O5Myb_N9L3xyK0cwro-22" value="" style="verticalLabelPosition=bottom;html=1;verticalAlign=top;align=center;shape=mxgraph.floorplan.doorLeft;aspect=fixed;rotation=-180;strokeWidth=0.7874;" parent="1" vertex="1">
          <mxGeometry x="665.9100000000001" y="586" width="33.88" height="36" as="geometry" />
        </mxCell>
        <mxCell id="O2O5Myb_N9L3xyK0cwro-23" value="" style="verticalLabelPosition=bottom;html=1;verticalAlign=top;align=center;shape=mxgraph.floorplan.doorRight;aspect=fixed;rotation=0;strokeWidth=0.7874;" parent="1" vertex="1">
          <mxGeometry x="666" y="624" width="33.71" height="35.81" as="geometry" />
        </mxCell>
        <mxCell id="O2O5Myb_N9L3xyK0cwro-24" value="" style="verticalLabelPosition=bottom;html=1;verticalAlign=top;align=center;shape=mxgraph.floorplan.wall;direction=south;wallThickness=12;rotation=-90;" parent="1" vertex="1">
          <mxGeometry x="698" y="615" width="20" height="16" as="geometry" />
        </mxCell>
        <mxCell id="O2O5Myb_N9L3xyK0cwro-25" value="" style="verticalLabelPosition=bottom;html=1;verticalAlign=top;align=center;shape=mxgraph.floorplan.doorRight;aspect=fixed;rotation=-180;strokeWidth=0.7874;" parent="1" vertex="1">
          <mxGeometry x="655" y="610" width="10.71" height="11.38" as="geometry" />
        </mxCell>
        <mxCell id="O2O5Myb_N9L3xyK0cwro-29" value="" style="verticalLabelPosition=bottom;html=1;verticalAlign=top;align=center;shape=mxgraph.floorplan.doorLeft;aspect=fixed;rotation=0;strokeWidth=0.7874;" parent="1" vertex="1">
          <mxGeometry x="655" y="624" width="10.35" height="11" as="geometry" />
        </mxCell>
        <mxCell id="O2O5Myb_N9L3xyK0cwro-30" value="" style="verticalLabelPosition=bottom;html=1;verticalAlign=top;align=center;shape=mxgraph.floorplan.wall;direction=south;wallThickness=12;rotation=-90;" parent="1" vertex="1">
          <mxGeometry x="641" y="619" width="20" height="8" as="geometry" />
        </mxCell>
        <mxCell id="O2O5Myb_N9L3xyK0cwro-33" value="" style="endArrow=none;dashed=1;html=1;rounded=0;curved=1;strokeWidth=0.7874;" parent="1" edge="1">
          <mxGeometry width="50" height="50" relative="1" as="geometry">
            <mxPoint x="650.83" y="610" as="sourcePoint" />
            <mxPoint x="680" y="550" as="targetPoint" />
            <Array as="points">
              <mxPoint x="660" y="570" />
            </Array>
          </mxGeometry>
        </mxCell>
        <mxCell id="O2O5Myb_N9L3xyK0cwro-35" value="" style="pointerEvents=1;verticalLabelPosition=bottom;shadow=0;dashed=0;align=center;html=1;verticalAlign=top;shape=mxgraph.electrical.electro-mechanical.relay_coil_2;strokeWidth=0.7874;" parent="1" vertex="1">
          <mxGeometry x="677.36" y="542" width="11" height="8" as="geometry" />
        </mxCell>
        <mxCell id="O2O5Myb_N9L3xyK0cwro-36" value="" style="pointerEvents=1;verticalLabelPosition=bottom;shadow=0;dashed=0;align=center;html=1;verticalAlign=top;shape=mxgraph.electrical.electro-mechanical.relay_coil_2;strokeWidth=0.7874;" parent="1" vertex="1">
          <mxGeometry x="641" y="443.75" width="11" height="8" as="geometry" />
        </mxCell>
        <mxCell id="O2O5Myb_N9L3xyK0cwro-37" value="" style="endArrow=none;dashed=1;html=1;rounded=0;curved=1;strokeWidth=0.7874;entryX=0.612;entryY=1.214;entryDx=0;entryDy=0;entryPerimeter=0;exitX=0.471;exitY=0.014;exitDx=0;exitDy=0;exitPerimeter=0;" parent="1" source="O2O5Myb_N9L3xyK0cwro-35" target="O2O5Myb_N9L3xyK0cwro-36" edge="1">
          <mxGeometry width="50" height="50" relative="1" as="geometry">
            <mxPoint x="690" y="550" as="sourcePoint" />
            <mxPoint x="719.17" y="490" as="targetPoint" />
            <Array as="points">
              <mxPoint x="680" y="530" />
              <mxPoint x="650" y="480" />
            </Array>
          </mxGeometry>
        </mxCell>
        <mxCell id="O2O5Myb_N9L3xyK0cwro-38" value="" style="rounded=0;whiteSpace=wrap;html=1;" parent="1" vertex="1">
          <mxGeometry x="708" y="587" width="8" height="27" as="geometry" />
        </mxCell>
        <mxCell id="O2O5Myb_N9L3xyK0cwro-39" value="" style="endArrow=none;dashed=1;html=1;rounded=0;curved=1;strokeWidth=0.7874;entryX=0.506;entryY=1.048;entryDx=0;entryDy=0;entryPerimeter=0;exitX=-0.178;exitY=0.275;exitDx=0;exitDy=0;exitPerimeter=0;" parent="1" source="O2O5Myb_N9L3xyK0cwro-38" target="O2O5Myb_N9L3xyK0cwro-35" edge="1">
          <mxGeometry width="50" height="50" relative="1" as="geometry">
            <mxPoint x="710" y="630" as="sourcePoint" />
            <mxPoint x="739.17" y="570" as="targetPoint" />
            <Array as="points">
              <mxPoint x="680" y="590" />
            </Array>
          </mxGeometry>
        </mxCell>
        <mxCell id="O2O5Myb_N9L3xyK0cwro-40" value="" style="endArrow=none;dashed=1;html=1;rounded=0;curved=1;strokeWidth=0.7874;exitX=-0.322;exitY=0.531;exitDx=0;exitDy=0;exitPerimeter=0;entryX=1.103;entryY=0.571;entryDx=0;entryDy=0;entryPerimeter=0;" parent="1" source="O2O5Myb_N9L3xyK0cwro-38" target="O2O5Myb_N9L3xyK0cwro-41" edge="1">
          <mxGeometry width="50" height="50" relative="1" as="geometry">
            <mxPoint x="677.36" y="680" as="sourcePoint" />
            <mxPoint x="620" y="580" as="targetPoint" />
            <Array as="points">
              <mxPoint x="680" y="600" />
              <mxPoint x="650" y="590" />
            </Array>
          </mxGeometry>
        </mxCell>
        <mxCell id="O2O5Myb_N9L3xyK0cwro-41" value="" style="pointerEvents=1;verticalLabelPosition=bottom;shadow=0;dashed=0;align=center;html=1;verticalAlign=top;shape=mxgraph.electrical.electro-mechanical.relay_coil_2;strokeWidth=0.7874;" parent="1" vertex="1">
          <mxGeometry x="609" y="570.5" width="11" height="8" as="geometry" />
        </mxCell>
        <mxCell id="O2O5Myb_N9L3xyK0cwro-42" value="&lt;font face=&quot;Verdana&quot; style=&quot;font-size: 6px;&quot;&gt;S1-1&lt;/font&gt;" style="text;html=1;align=center;verticalAlign=middle;whiteSpace=wrap;rounded=0;imageVerticalAlign=top;" parent="1" vertex="1">
          <mxGeometry x="615.5" y="631" width="25.5" height="7.5" as="geometry" />
        </mxCell>
        <mxCell id="O2O5Myb_N9L3xyK0cwro-43" value="&lt;font face=&quot;Verdana&quot; style=&quot;font-size: 6px;&quot;&gt;S1-2&lt;/font&gt;" style="text;html=1;align=center;verticalAlign=middle;whiteSpace=wrap;rounded=0;imageVerticalAlign=top;" parent="1" vertex="1">
          <mxGeometry x="633.75" y="631" width="25.5" height="7.5" as="geometry" />
        </mxCell>
        <mxCell id="O2O5Myb_N9L3xyK0cwro-45" value="&lt;font face=&quot;Verdana&quot; style=&quot;font-size: 6px;&quot;&gt;S1-1&lt;/font&gt;" style="text;html=1;align=center;verticalAlign=middle;whiteSpace=wrap;rounded=0;imageVerticalAlign=top;" parent="1" vertex="1">
          <mxGeometry x="685" y="540" width="25.5" height="7.5" as="geometry" />
        </mxCell>
        <mxCell id="O2O5Myb_N9L3xyK0cwro-46" value="&lt;font face=&quot;Verdana&quot; style=&quot;font-size: 6px;&quot;&gt;S1-2&lt;/font&gt;" style="text;html=1;align=center;verticalAlign=middle;whiteSpace=wrap;rounded=0;imageVerticalAlign=top;" parent="1" vertex="1">
          <mxGeometry x="648" y="442" width="25.5" height="7.5" as="geometry" />
        </mxCell>
        <mxCell id="O2O5Myb_N9L3xyK0cwro-49" value="" style="pointerEvents=1;verticalLabelPosition=bottom;shadow=0;dashed=0;align=center;html=1;verticalAlign=top;shape=mxgraph.electrical.electro-mechanical.relay_coil_2;strokeWidth=0.7874;" parent="1" vertex="1">
          <mxGeometry x="746" y="528" width="11" height="8" as="geometry" />
        </mxCell>
        <mxCell id="O2O5Myb_N9L3xyK0cwro-50" value="&lt;font face=&quot;Verdana&quot; style=&quot;font-size: 6px;&quot;&gt;S1-3&lt;/font&gt;" style="text;html=1;align=center;verticalAlign=middle;whiteSpace=wrap;rounded=0;imageVerticalAlign=top;" parent="1" vertex="1">
          <mxGeometry x="757" y="528" width="25.5" height="7.5" as="geometry" />
        </mxCell>
        <mxCell id="O2O5Myb_N9L3xyK0cwro-51" value="" style="endArrow=none;dashed=1;html=1;rounded=0;curved=1;strokeWidth=0.7874;entryX=0.072;entryY=1.081;entryDx=0;entryDy=0;entryPerimeter=0;exitX=0;exitY=0.5;exitDx=0;exitDy=0;exitPerimeter=0;" parent="1" source="O2O5Myb_N9L3xyK0cwro-49" target="O2O5Myb_N9L3xyK0cwro-46" edge="1">
          <mxGeometry width="50" height="50" relative="1" as="geometry">
            <mxPoint x="692.35" y="500" as="sourcePoint" />
            <mxPoint x="668.35" y="456" as="targetPoint" />
            <Array as="points">
              <mxPoint x="730" y="532" />
              <mxPoint x="690" y="500" />
              <mxPoint x="670" y="460" />
            </Array>
          </mxGeometry>
        </mxCell>
        <mxCell id="O2O5Myb_N9L3xyK0cwro-52" value="" style="endArrow=none;dashed=1;html=1;rounded=0;curved=1;strokeWidth=0.7874;entryX=0.123;entryY=0.923;entryDx=0;entryDy=0;entryPerimeter=0;exitX=0.399;exitY=0.056;exitDx=0;exitDy=0;exitPerimeter=0;" parent="1" source="O2O5Myb_N9L3xyK0cwro-49" target="O2O5Myb_N9L3xyK0cwro-46" edge="1">
          <mxGeometry width="50" height="50" relative="1" as="geometry">
            <mxPoint x="746" y="528" as="sourcePoint" />
            <mxPoint x="650" y="446" as="targetPoint" />
            <Array as="points">
              <mxPoint x="700" y="460" />
            </Array>
          </mxGeometry>
        </mxCell>
        <mxCell id="O2O5Myb_N9L3xyK0cwro-53" value="" style="endArrow=none;html=1;rounded=0;entryX=0.42;entryY=0.409;entryDx=0;entryDy=0;entryPerimeter=0;" parent="1" target="vs-SE0_Q2x5BFznHqj6H-7" edge="1">
          <mxGeometry width="50" height="50" relative="1" as="geometry">
            <mxPoint x="596" y="523" as="sourcePoint" />
            <mxPoint x="596.007" y="432.991" as="targetPoint" />
          </mxGeometry>
        </mxCell>
        <mxCell id="O2O5Myb_N9L3xyK0cwro-54" value="" style="endArrow=none;html=1;rounded=0;" parent="1" edge="1">
          <mxGeometry width="50" height="50" relative="1" as="geometry">
            <mxPoint x="715" y="394" as="sourcePoint" />
            <mxPoint x="596" y="394" as="targetPoint" />
          </mxGeometry>
        </mxCell>
        <mxCell id="O2O5Myb_N9L3xyK0cwro-55" value="" style="endArrow=none;html=1;rounded=0;" parent="1" edge="1">
          <mxGeometry width="50" height="50" relative="1" as="geometry">
            <mxPoint x="596" y="512" as="sourcePoint" />
            <mxPoint x="642" y="512" as="targetPoint" />
          </mxGeometry>
        </mxCell>
        <mxCell id="O2O5Myb_N9L3xyK0cwro-56" value="" style="endArrow=none;html=1;rounded=0;" parent="1" edge="1">
          <mxGeometry width="50" height="50" relative="1" as="geometry">
            <mxPoint x="653" y="617" as="sourcePoint" />
            <mxPoint x="653" y="523" as="targetPoint" />
          </mxGeometry>
        </mxCell>
        <mxCell id="O2O5Myb_N9L3xyK0cwro-57" value="" style="endArrow=none;html=1;rounded=0;curved=1;" parent="1" edge="1">
          <mxGeometry width="50" height="50" relative="1" as="geometry">
            <mxPoint x="642" y="512" as="sourcePoint" />
            <mxPoint x="653" y="523" as="targetPoint" />
            <Array as="points">
              <mxPoint x="653" y="512" />
            </Array>
          </mxGeometry>
        </mxCell>
        <mxCell id="O2O5Myb_N9L3xyK0cwro-60" value="" style="endArrow=none;dashed=1;html=1;rounded=0;curved=1;strokeWidth=0.7874;exitX=0;exitY=0.5;exitDx=0;exitDy=0;exitPerimeter=0;" parent="1" source="O2O5Myb_N9L3xyK0cwro-36" target="O2O5Myb_N9L3xyK0cwro-62" edge="1">
          <mxGeometry width="50" height="50" relative="1" as="geometry">
            <mxPoint x="641" y="448" as="sourcePoint" />
            <mxPoint x="595" y="454" as="targetPoint" />
            <Array as="points">
              <mxPoint x="620" y="454" />
            </Array>
          </mxGeometry>
        </mxCell>
        <mxCell id="O2O5Myb_N9L3xyK0cwro-59" value="" style="pointerEvents=1;verticalLabelPosition=bottom;shadow=0;dashed=0;align=center;html=1;verticalAlign=top;shape=mxgraph.electrical.electro-mechanical.relay_coil_2;strokeWidth=0.3937;" parent="1" vertex="1">
          <mxGeometry x="589" y="452" width="6" height="4" as="geometry" />
        </mxCell>
        <mxCell id="O2O5Myb_N9L3xyK0cwro-62" value="" style="rounded=0;whiteSpace=wrap;html=1;" parent="1" vertex="1">
          <mxGeometry x="535.0000000000002" y="424" width="120" height="60" as="geometry" />
        </mxCell>
        <mxCell id="O2O5Myb_N9L3xyK0cwro-63" value="&lt;h2&gt;&lt;font face=&quot;Verdana&quot;&gt;&lt;span style=&quot;line-height: 150%;&quot;&gt;ELECTRICAL PLAN&lt;/span&gt;&lt;/font&gt;&lt;/h2&gt;" style="rounded=0;whiteSpace=wrap;html=1;" parent="1" vertex="1">
          <mxGeometry x="1421.75" y="740" width="220" height="36" as="geometry" />
        </mxCell>
        <mxCell id="O2O5Myb_N9L3xyK0cwro-65" value="" style="rounded=0;whiteSpace=wrap;html=1;" parent="1" vertex="1">
          <mxGeometry x="1421.75" y="776" width="220" height="380" as="geometry" />
        </mxCell>
        <mxCell id="O2O5Myb_N9L3xyK0cwro-67" value="&lt;h2&gt;&lt;font face=&quot;Verdana&quot;&gt;&lt;span style=&quot;line-height: 150%; font-weight: normal;&quot;&gt;BLOCK 562C, CHAMPIONS BLISS, #05-160&lt;/span&gt;&lt;/font&gt;&lt;/h2&gt;" style="rounded=0;whiteSpace=wrap;html=1;" parent="1" vertex="1">
          <mxGeometry x="1002.75" y="1048" width="419" height="36" as="geometry" />
        </mxCell>
        <mxCell id="O2O5Myb_N9L3xyK0cwro-68" value="&lt;h2&gt;&lt;font face=&quot;Verdana&quot;&gt;&lt;span style=&quot;line-height: 150%; font-weight: normal;&quot;&gt;SINGAPORE 733562&lt;/span&gt;&lt;/font&gt;&lt;/h2&gt;" style="rounded=0;whiteSpace=wrap;html=1;" parent="1" vertex="1">
          <mxGeometry x="1002.75" y="1084" width="419" height="36" as="geometry" />
        </mxCell>
        <mxCell id="O2O5Myb_N9L3xyK0cwro-69" value="&lt;h2&gt;&lt;font face=&quot;Verdana&quot;&gt;&lt;span style=&quot;line-height: 150%; font-weight: normal;&quot;&gt;rev 1.0&lt;/span&gt;&lt;/font&gt;&lt;/h2&gt;" style="rounded=0;whiteSpace=wrap;html=1;" parent="1" vertex="1">
          <mxGeometry x="1002.75" y="1120" width="419" height="36" as="geometry" />
        </mxCell>
        <mxCell id="O2O5Myb_N9L3xyK0cwro-70" value="&lt;h2&gt;&lt;font face=&quot;Verdana&quot;&gt;&lt;span style=&quot;line-height: 150%; font-weight: normal;&quot;&gt;MUHAMMAD IZZAT JAMALI&lt;/span&gt;&lt;/font&gt;&lt;/h2&gt;" style="rounded=0;whiteSpace=wrap;html=1;" parent="1" vertex="1">
          <mxGeometry x="584.5" y="1084" width="419" height="36" as="geometry" />
        </mxCell>
        <mxCell id="O2O5Myb_N9L3xyK0cwro-71" value="&lt;h2&gt;&lt;font face=&quot;Verdana&quot;&gt;&lt;span style=&quot;line-height: 150%;&quot;&gt;AUTHOR&lt;/span&gt;&lt;/font&gt;&lt;/h2&gt;" style="rounded=0;whiteSpace=wrap;html=1;" parent="1" vertex="1">
          <mxGeometry x="585" y="1048" width="419" height="36" as="geometry" />
        </mxCell>
        <mxCell id="O2O5Myb_N9L3xyK0cwro-72" value="&lt;h2&gt;&lt;font style=&quot;color: rgb(255, 48, 48);&quot; face=&quot;Verdana&quot;&gt;&lt;span style=&quot;line-height: 150%;&quot;&gt;&lt;i&gt;FOR REFERENCE (ORIGINAL COPY)&lt;/i&gt;&lt;/span&gt;&lt;/font&gt;&lt;/h2&gt;" style="rounded=0;whiteSpace=wrap;html=1;" parent="1" vertex="1">
          <mxGeometry x="585" y="1120" width="419" height="36" as="geometry" />
        </mxCell>
      </root>
    </mxGraphModel>
  </diagram>
</mxfile>
